# xmcd
#
# Track frame offsets: 
#        150
#        18494
#        35450
#        53717
#        69388
#        88092
#        104052
#        120785
#        137274
#        156549
#
# Disc length: 2260 seconds
#
# Revision: 3
# Processed by: cddbd v1.5.2PL0 Copyright (c) Steve Scherf et al.
# Submitted via: ExactAudioCopy v1.3
#
DISCID=7e08d20a
DTITLE=呂方 - 心靈感應
DYEAR=2004
DGENRE=Pop
TTITLE0=心靈感應
TTITLE1=出軌
TTITLE2=你令我快樂過
TTITLE3=白巴恐佈
TTITLE4=同是寂寞人
TTITLE5=聽不到的說話
TTITLE6=重要關頭
TTITLE7=從未如此深愛過
TTITLE8=傷信
TTITLE9=獨門武器
EXTD=YEAR: 2004
EXTT0=
EXTT1=
EXTT2=
EXTT3=
EXTT4=
EXTT5=
EXTT6=
EXTT7=
EXTT8=
EXTT9=
PLAYORDER=
